<?xml version="1.0" encoding="UTF-8"?>
<svg id="Calque_2" data-name="Calque 2" xmlns="http://www.w3.org/2000/svg" viewBox="0 0 301.65 142.82">
  <defs>
    <style>
      .cls-1 {
        fill: #12120d;
      }

      .cls-2 {
        stroke-width: 2.17px;
      }

      .cls-2, .cls-3 {
        fill: none;
        stroke: #12120d;
        stroke-miterlimit: 10;
      }

      .cls-3 {
        stroke-width: 2.08px;
      }
    </style>
  </defs>
  <g id="Calque_1-2" data-name="Calque 1">
    <g>
      <path class="cls-2" d="M265.16,111.54c-25.08,15.1-64.27,30.19-113.72,30.19-66.29,0-112.51-24.86-137.42-45.03"/>
      <path class="cls-3" d="M44.12,33.76c25.77-14.88,61.66-28.47,106.77-28.51,15.23-.01,29.32,1.49,42.29,4.05"/>
      <path class="cls-1" d="M8.06,72.88h11.79v2.02h-9.41v7.56h8.45v2.02h-8.45v9.9h-2.38v-21.49Z"/>
      <path class="cls-1" d="M2.31,54.18h2.38v21.49h-2.38v-21.49Z"/>
      <path class="cls-1" d="M8.53,59.77h2.4c.18,3.32,2.02,4.75,4.72,4.75,2.29,0,4.41-.86,4.41-3.84v-.04c0-2.4-1.51-3.39-3.75-4.17l-2.68-.92c-2.88-.99-4.75-2.56-4.75-5.86v-.1c0-3.41,2.73-5.42,6.41-5.42s6.38,1.81,6.58,6.02h-2.4c-.19-3.16-2.02-4.14-4.27-4.14-2.11,0-3.93,1.02-3.93,3.45v.09c0,1.97,1.09,3.07,3.19,3.8l2.67.92c3.13,1.07,5.3,2.53,5.3,6.11v.07c0,3.93-2.71,5.92-6.77,5.92-4.51,0-6.95-2.35-7.13-6.64Z"/>
      <path class="cls-1" d="M25.37,31.94h2.38v9.57h9.23v-9.57h2.38v21.49h-2.38v-9.9h-9.23v9.9h-2.38v-21.49Z"/>
      <path class="cls-1" d="M201.13,3.87h2.86l6.77,21.5h-2.44l-1.93-6.37h-7.72l-1.95,6.37h-2.37l6.77-21.5ZM205.77,17l-3.24-10.61h-.04l-3.22,10.61h6.5Z"/>
      <path class="cls-1" d="M214.04,8.43h3.51l8.42,19.21h.06l-.09-9.28v-9.93h2.28v21.49h-3.52l-8.41-19.21h-.05l.09,9.28v9.93h-2.29V8.43Z"/>
      <path class="cls-1" d="M232.02,16.6h5.12c6.13,0,9.05,3.19,9.05,10.28v.95c0,7.08-2.92,10.26-9.05,10.26h-5.12v-21.49ZM237.02,36.12c4.57,0,6.65-2.29,6.65-8.13v-1.27c0-5.83-2.08-8.14-6.65-8.14h-2.62v17.54h2.62Z"/>
      <path class="cls-1" d="M260.23,43.14v-1.81c0-6.96,2.43-10.22,7.79-10.22,4.41,0,7.03,2.4,7.36,7.29h-2.41c-.27-3.76-2.26-5.32-4.96-5.32-3.69,0-5.27,2.54-5.27,7.81v2.67c0,5.28,1.59,7.81,5.27,7.81,2.7,0,4.69-1.55,4.96-5.32h2.41c-.33,4.91-2.95,7.31-7.36,7.31-5.37,0-7.79-3.26-7.79-10.22Z"/>
      <path class="cls-1" d="M296.96,59.08h2.38v21.49h-2.38v-21.49Z"/>
      <path class="cls-1" d="M279.24,44.79h2.38v9.57h9.23v-9.57h2.38v21.49h-2.38v-9.9h-9.23v9.9h-2.38v-21.49Z"/>
      <path class="cls-1" d="M264.12,101.98h2.4c.18,3.32,2.02,4.75,4.72,4.75,2.29,0,4.41-.86,4.41-3.84v-.04c0-2.4-1.51-3.39-3.75-4.17l-2.68-.92c-2.88-.99-4.75-2.56-4.75-5.86v-.1c0-3.41,2.73-5.42,6.41-5.42s6.38,1.81,6.58,6.02h-2.4c-.2-3.16-2.02-4.14-4.27-4.14-2.11,0-3.93,1.02-3.93,3.45v.09c0,1.97,1.09,3.07,3.19,3.8l2.67.92c3.13,1.07,5.3,2.53,5.3,6.11v.07c0,3.93-2.71,5.92-6.77,5.92-4.51,0-6.95-2.35-7.13-6.64Z"/>
      <path class="cls-1" d="M281.52,77.97h5.6c4.93,0,7.48,1.94,7.48,6.12v.15c0,4.2-2.55,6.14-7.48,6.14h-3.22v9.08h-2.38v-21.49ZM287.05,88.4c3.25,0,5.05-1.07,5.05-4.15v-.16c0-3.08-1.8-4.15-5.05-4.15h-3.15v8.46h3.15Z"/>
      <g>
        <path class="cls-1" d="M135.08,126.2h.89v5.57h2.42v.77h-3.31v-6.35Z"/>
        <path class="cls-1" d="M140.55,126.2h1.06l1.93,6.35h-.91l-.53-1.81h-2.08l-.52,1.81h-.88l1.93-6.35ZM141.88,129.97l-.81-2.79h0l-.81,2.79h1.63Z"/>
        <path class="cls-1" d="M144.13,130.46v-4.27h.89v4.25c0,.98.37,1.46,1.18,1.46s1.19-.48,1.19-1.46v-4.25h.89v4.27c0,1.53-.7,2.2-2.08,2.2s-2.07-.67-2.07-2.2Z"/>
        <path class="cls-1" d="M149.2,130.66h.89c.04.9.52,1.3,1.21,1.3.6,0,1.14-.23,1.14-1.01v-.02c0-.63-.39-.91-.98-1.1l-.78-.27c-.85-.28-1.41-.77-1.41-1.79v-.04c0-1.02.79-1.66,1.91-1.66s1.91.55,1.96,1.85h-.89c-.05-.88-.52-1.14-1.1-1.14-.54,0-1,.27-1,.92v.03c0,.52.29.83.83,1.01l.78.27c.93.31,1.56.76,1.56,1.84v.03c0,1.17-.79,1.8-2.03,1.8-1.35,0-2.06-.73-2.11-2Z"/>
        <path class="cls-1" d="M155.6,126.2h1.06l1.93,6.35h-.91l-.53-1.81h-2.08l-.52,1.81h-.88l1.93-6.35ZM156.93,129.97l-.81-2.79h0l-.81,2.79h1.63Z"/>
        <path class="cls-1" d="M159.32,126.2h1.3l2.1,5.48h.02l-.04-1.91v-3.57h.85v6.35h-1.3l-2.09-5.48h-.02l.04,1.91v3.56h-.85v-6.35Z"/>
        <path class="cls-1" d="M164.79,126.2h1.3l2.1,5.48h.02l-.04-1.91v-3.57h.85v6.35h-1.3l-2.09-5.48h-.02l.04,1.91v3.56h-.85v-6.35Z"/>
        <path class="cls-1" d="M170.26,126.2h3.46v.77h-2.57v1.97h2.26v.77h-2.26v2.05h2.57v.77h-3.46v-6.35Z"/>
      </g>
    </g>
  </g>
</svg>